<svg version="1.1" id="_x32_" xmlns="http://www.w3.org/2000/svg" x="0" y="0" viewBox="0 0 512 512" style="width:256px;height:256px" xml:space="preserve" opacity="1"><style>.st0{fill:#4b4b4b}</style><path class="st0" d="M417.975 226.338c-5.966 0-11.764.618-17.404 1.684l-33.048-100.841c-5.781-17.644-22.258-29.577-40.822-29.577h-45.506v24.414h45.506a18.53 18.53 0 0117.636 12.768l6.028 18.433h-60.684c-31.084 0-54.424 15.542-54.424 15.542v45.358h135.064l7.064 21.54c-31.579 15.163-53.42 47.345-53.435 84.704.016 51.936 42.09 94.018 94.026 94.033 51.92-.015 94.01-42.097 94.025-94.033-.016-51.928-42.106-94.01-94.026-94.025zm43.481 137.506c-11.175 11.144-26.462 18.007-43.48 18.007-17.034 0-32.29-6.862-43.466-18.007-11.144-11.176-18.008-26.447-18.008-43.481 0-17.026 6.863-32.29 18.008-43.465 3.88-3.88 8.409-7.01 13.185-9.754l11.114 33.928c-4.962 4.931-8.037 11.748-8.037 19.29 0 15.032 12.18 27.22 27.204 27.22 15.024 0 27.204-12.188 27.204-27.22 0-13.633-10.062-24.809-23.14-26.787l-11.128-33.974c2.35-.278 4.637-.711 7.064-.711 17.018 0 32.305 6.855 43.48 18.008 11.144 11.175 17.977 26.439 18.008 43.465-.032 17.034-6.864 32.305-18.008 43.481zM94.01 226.338C42.074 226.353.016 268.435 0 320.363c.016 51.936 42.074 94.018 94.01 94.033 51.936-.015 94.01-42.097 94.026-94.033-.016-51.928-42.09-94.01-94.026-94.025zm43.481 137.506c-11.176 11.144-26.447 18.007-43.481 18.007-17.034 0-32.29-6.862-43.466-18.007-11.16-11.176-18.008-26.447-18.008-43.481 0-17.026 6.848-32.29 18.008-43.465C61.72 265.745 76.976 258.89 94.01 258.89c17.034 0 32.306 6.855 43.481 18.008 11.144 11.175 17.992 26.439 18.008 43.465-.016 17.034-6.863 32.305-18.008 43.481z" fill="#4b4b4b"/><path class="st0" d="M94.01 293.167c-15.024 0-27.204 12.172-27.204 27.196 0 15.032 12.18 27.22 27.204 27.22 15.025 0 27.22-12.188 27.22-27.22 0-15.024-12.195-27.196-27.22-27.196zm345.064-85.617v-65.855c-27.854 0-45.583 18.997-45.583 18.997v27.854s17.729 19.004 45.583 19.004zm11.794-65.87h13.525v65.847h-13.525zM70.5 214.119h149.67v-42.762h-45.52a115.278 115.278 0 01-35.954-5.742l-16.261-5.34a115.213 115.213 0 00-35.953-5.758H70.5c-8.47 0-15.348 6.886-15.348 15.372v28.858c-.001 8.486 6.877 15.372 15.348 15.372zm272.802 17.992v-1.352H167.03c26.029 21.161 42.708 53.435 42.708 89.636 0 3.246 1.112 9.761 10.433 9.761h69.928c8.888 0 12.118-6.515 12.118-9.761 0-35.397 15.982-67.123 41.085-88.284z" fill="#4b4b4b"/></svg>