<svg version="1.1" id="_x32_" xmlns="http://www.w3.org/2000/svg" x="0" y="0" viewBox="0 0 512 512" style="width:256px;height:256px" xml:space="preserve" opacity="1"><style>.st0{fill:#4b4b4b}</style><path class="st0" d="M185.158 223.146c2.486 0 4.965.076 7.436.248 11.88-40.59 41.969-72.75 80.556-87.742-17.131-26.503-46.904-44.056-80.804-44.056-49.751 0-90.689 37.788-95.66 86.236a74.433 74.433 0 00-22.066-3.323C33.411 174.51 0 207.914 0 249.122c0 41.216 33.411 74.619 74.619 74.619h.746c4.912-56.283 52.26-100.595 109.793-100.595z" fill="#4b4b4b"/><path class="st0" d="M434.638 265.688c-.03 0-.06.008-.098.008.045-1.288.098-2.576.098-3.872 0-61.956-50.218-112.174-112.167-112.174-58.03 0-105.77 44.07-111.578 100.572a86.925 86.925 0 00-25.735-3.873c-48.064 0-87.027 38.964-87.027 87.028 0 48.063 38.963 87.027 87.027 87.027h249.48c42.723 0 77.362-34.631 77.362-77.354 0-42.73-34.639-77.362-77.362-77.362z" fill="#4b4b4b"/></svg>