<svg xmlns="http://www.w3.org/2000/svg" width="512" height="512" style="width:256px;height:256px"><path d="M473.818.003S455.24 28.3 333.88 70.175c-123.719 42.688-199.875 216.406-199.875 216.406-18.344 35.578-90.813 183.453-90.813 183.453-19.953 38.172 16.625 60.734 38.063 21.313 41.156-75.703 67.688-144.875 130.25-146.844 91.219-2.875 153.609-84.109 133.984-80.359-25.844 11.484-82.781.875-49.234-4.391 80.531-6.594 130.125-68.297 113.969-72.5-28.563 11.219-55.172.578-60.391-2.656C491.959 166.987 473.818.003 473.818.003z" fill="#4b4b4b"/></svg>