<svg xmlns="http://www.w3.org/2000/svg" width="512" height="512" style="width:256px;height:256px"><path d="M343.656 451.109C410 411.438 454.422 338.906 454.422 256c0-125.484-101.719-227.219-227.203-227.219C101.719 28.781 0 130.516 0 256s101.719 227.219 227.219 227.219H512V451.11H343.656zm-25.172-305.234c23.547-13.594 53.641-5.531 67.234 18.016s5.531 53.656-18.016 67.25c-23.547 13.578-53.641 5.516-67.234-18.016-13.609-23.562-5.53-53.656 18.016-67.25zm-18.031 151.813c13.609-23.547 43.703-31.609 67.25-18.016 23.547 13.609 31.609 43.703 18.016 67.25s-43.688 31.609-67.25 18.016c-23.531-13.594-31.61-43.704-18.016-67.25zM227.219 72.375c27.188 0 49.219 22.031 49.219 49.219s-22.031 49.25-49.219 49.25-49.25-22.063-49.25-49.25 22.062-49.219 49.25-49.219zM249.938 256c0 12.563-10.172 22.719-22.719 22.719-12.563 0-22.719-10.156-22.719-22.719s10.156-22.719 22.719-22.719c12.547 0 22.719 10.157 22.719 22.719zM68.703 163.891c13.594-23.547 43.703-31.609 67.25-18.016s31.609 43.688 18.016 67.25c-13.594 23.531-43.703 31.609-67.25 18.016-23.531-13.594-31.61-43.703-18.016-67.25zm67.266 201.047c-23.563 13.594-53.656 5.531-67.266-18.016-13.578-23.547-5.516-53.656 18.016-67.266 23.547-13.594 53.656-5.516 67.25 18.031s5.531 53.657-18 67.251zm42 24.265c0-27.188 22.063-49.234 49.25-49.234s49.219 22.047 49.219 49.234-22.031 49.234-49.219 49.234-49.25-22.046-49.25-49.234z" fill="#4b4b4b"/></svg>