<svg version="1.1" id="_x32_" xmlns="http://www.w3.org/2000/svg" x="0" y="0" width="512" height="512" style="width:256px;height:256px" xml:space="preserve" opacity="1"><style>.st0{fill:#4b4b4b}</style><path class="st0" d="M35.938 171.641H12.734C5.703 171.641 0 177.344 0 184.375v96.578c0 7.031 5.703 12.734 12.734 12.734h23.203c7.031 0 12.734-5.703 12.734-12.734v-96.578c.001-7.031-5.702-12.734-12.733-12.734zm128.328 115.797c-31.703 0-57.484 25.781-57.484 57.484 0 31.688 25.781 57.469 57.484 57.469s57.469-25.781 57.469-57.469c-.001-31.703-25.766-57.484-57.469-57.484zm0 83.968c-14.625 0-26.484-11.859-26.484-26.484 0-14.641 11.859-26.484 26.484-26.484 14.609 0 26.484 11.844 26.484 26.484 0 14.625-11.875 26.484-26.484 26.484zm230.703-83.968c-31.703 0-57.484 25.781-57.484 57.484 0 31.688 25.781 57.469 57.484 57.469 31.688 0 57.469-25.781 57.469-57.469 0-31.703-25.782-57.484-57.469-57.484zm0 83.968c-14.625 0-26.5-11.859-26.5-26.484 0-14.641 11.875-26.484 26.5-26.484s26.469 11.844 26.469 26.484c0 14.625-11.844 26.484-26.469 26.484z" fill="#4b4b4b"/><circle class="st0" cx="164.266" cy="344.922" r="9.078" fill="#4b4b4b"/><path class="st0" d="M394.969 335.844c-5.031 0-9.094 4.063-9.094 9.078s4.063 9.078 9.094 9.078c5 0 9.078-4.063 9.078-9.078s-4.078-9.078-9.078-9.078z" fill="#4b4b4b"/><path class="st0" d="M488.594 200.234l-81.953-15.859-75.313-57.141a86.71 86.71 0 00-52.406-17.625H100.234c-21.281 0-38.547 17.25-38.547 38.531v169.906c0 10.641 8.641 19.266 19.281 19.266h15.156c3.797-34.25 32.906-60.969 68.141-60.969s64.344 26.719 68.141 60.969h94.407c3.813-34.25 32.906-60.969 68.156-60.969 35.234 0 64.344 26.719 68.125 60.969h29.641c10.641 0 19.266-8.625 19.266-19.266v-89.438c-.001-13.842-9.813-25.749-23.407-28.374zm-401.688-9.062a4.815 4.815 0 01-4.813-4.813V148.14c0-10 8.141-18.141 18.141-18.141h106.469v61.172H86.906zm230.719 44.781h-27a3.494 3.494 0 01-3.5-3.5c0-1.922 1.563-3.5 3.5-3.5h27c1.938 0 3.5 1.578 3.5 3.5 0 1.938-1.562 3.5-3.5 3.5zM377 189.531a2.418 2.418 0 01-2.281 1.641H222.563V130h56.359c14.391 0 28.609 4.781 40.078 13.469l57.156 43.375c.844.625 1.157 1.719.844 2.687z" fill="#4b4b4b"/></svg>