<svg xmlns="http://www.w3.org/2000/svg" width="512" height="512" style="width:256px;height:256px"><path d="M81.113 385.625c0 28.516 23.125 51.625 51.641 51.625h246.484c28.531 0 51.641-23.109 51.641-51.625V213.188H81.113v172.437zM51.738 211.672l-.031-.016-33.156-22.75a11.816 11.816 0 00-16.469 3.063c-3.703 5.375-2.328 12.75 3.063 16.469l33.063 22.656-.047-.016a7.738 7.738 0 013.297 6.344v34.031c0 6.547 5.313 11.828 11.844 11.828 6.547 0 11.844-5.281 11.844-11.828v-34.031a31.45 31.45 0 00-13.408-25.75zm458.188-19.703c-3.703-5.406-11.078-6.781-16.469-3.063l-33.156 22.75-.031.016a31.422 31.422 0 00-13.406 25.75v34.031c0 6.547 5.297 11.828 11.844 11.828 6.531 0 11.828-5.281 11.828-11.828v-34.031a7.783 7.783 0 013.266-6.328l33.063-22.672c5.389-3.703 6.748-11.078 3.061-16.453zm-86.704-19.656s.078-.063-3.797-2.219c-42.297-23.5-91.813-37.063-144.781-37.063h-37.281c-52.969 0-102.484 13.563-144.781 37.063-3.875 2.156-3.797 2.219-3.797 2.219a15.506 15.506 0 00-7.672 13.375v8.688h349.766v-8.688a15.49 15.49 0 00-7.657-13.375zM256.003 125.75c14.078 0 25.5-11.406 25.5-25.5s-11.422-25.5-25.5-25.5c-14.094 0-25.516 11.406-25.516 25.5s11.423 25.5 25.516 25.5z" fill="#4b4b4b"/></svg>