<svg xmlns="http://www.w3.org/2000/svg" width="512" height="512" style="width:256px;height:256px"><path d="M259.119 460.031c0 13.406-10.875 24.266-24.266 24.266h-51.031c-13.406 0-24.266-10.859-24.266-24.266v-11.203c0-13.406 10.859-24.266 24.266-24.266h51.031c13.391 0 24.266 10.859 24.266 24.266v11.203zM36.9 365.688h-4.266c-13.391 0-24.266 10.875-24.266 24.266v33.516c0 13.406 6.25 24.281 16.953 24.281h2.672c11.578 0 8.906 10.859 8.906 24.266v15.719C36.9 501.125 47.775 512 61.166 512H98.26c13.406 0 24.266-10.875 24.266-24.266v-97.781c0-13.391-10.859-24.266-24.266-24.266H36.9zm301.422-204.25c-11.422 0-21.297 7.969-23.703 19.125l-13.563 62.531c-2.406 11.156-12.297 19.125-23.719 19.125H125.385c-13.391 0-24.266 10.875-24.266 24.266v18.375c0 13.391 10.875 24.266 24.266 24.266h4.984c13.391 0 24.266 10.875 24.266 24.281v12.078c0 13.391 10.875 24.266 24.266 24.266h188.125c11.391 0 21.25-7.938 23.703-19.094l39.313-179.781a24.185 24.185 0 00-4.797-20.375 24.215 24.215 0 00-18.922-9.063h-68.001zm149.625-52.688c-2.188 11.422-12.172 19.688-23.844 19.688H358.588c-7.234 0-14.109-3.203-18.688-8.781-4.625-5.594-6.516-12.938-5.156-20.031l15.25-79.906C352.182 8.281 362.182 0 373.838 0h105.531a24.19 24.19 0 0118.688 8.813 24.238 24.238 0 015.141 20.031l-15.251 79.906z" fill="#4b4b4b"/></svg>