<svg xmlns="http://www.w3.org/2000/svg" viewBox="0 0 512 512" style="width:256px;height:256px"><path d="M437.276 414.686c3.512-22.157 1.446-47.289-11.063-74.848-34.439-75.922-110.485-82.832-163.496-108.181-19.172-9.162-31.711-23.624-38.612-42.062 0 0-10.216-26.454-5.185-44.933 5.185-19.017 23.324-39.438 29.966-65.096 16.703-64.529 2.882-99.092-40.337-67.99-44.324 31.929-44.933 111.776-44.933 111.776s1.157 2.872-1.147 7.5c-3.626 7.293-17.715 4.814-16.135-57.05 1.064-41.534-34.573-101.973-62.214-29.387-13.986 36.68 24.212 99.67 24.212 99.67s-28.344 16.868-46.689 45.512C34 232.804 42.285 252.14 49.546 269.101c15.556 36.299 57.029 1.725 79.506 77.772 8.594 29.056 6.797 115.34-7.727 127.786-14.523 12.457-4.142 33.2-4.142 33.2h62.215s2.996-63.02 21.092-52.681c32.27 18.428 59.788 15.34 36.98 23.634C214.664 487.096 216.73 512 216.73 512h157.639c6.229-3.905 21.186-15.814 35.12-34.181 6.384 5.568 14.616 9.049 23.748 9.049 20.06 0 36.298-16.258 36.298-36.298-.001-18.655-14.143-33.86-32.259-35.884z" fill="#4b4b4b"/></svg>