<svg xmlns="http://www.w3.org/2000/svg" width="512" height="512" style="width:256px;height:256px"><path d="M331.188 80.469H19.5C8.781 80.469 0 89.25 0 99.984v255.641c0 10.719 8.781 19.5 19.5 19.5h90.438v37.719H84.516v18.688h181.672v-18.688H240.75v-37.719h90.438c10.719 0 19.5-8.781 19.5-19.5V99.984c0-10.734-8.782-19.515-19.5-19.515zm-5.875 261.5H25.359V105.828h299.953v236.141zm166.781-261.5H391.469c-10.984 0-19.906 8.906-19.906 19.906v311.25c0 11 8.922 19.906 19.906 19.906h100.625c11 0 19.906-8.906 19.906-19.906v-311.25c0-11-8.906-19.906-19.906-19.906zm-50.313 263.297c-12.594 0-22.813-10.219-22.813-22.813 0-12.609 10.219-22.828 22.813-22.828s22.828 10.219 22.828 22.828c0 12.594-10.234 22.813-22.828 22.813zm36-142.172h-70.219v-14.047h70.219v14.047zm0-42.141h-70.219v-14.031h70.219v14.031z" fill="#4b4b4b"/></svg>