<svg xmlns="http://www.w3.org/2000/svg" viewBox="0 0 512 512" style="width:256px;height:256px"><path d="M129.18 417.603c0 19.313 15.649 34.962 34.962 34.962H474.99c19.304 0 34.963-15.649 34.963-34.962v-27.946H129.18v27.946zM479.949 59.435H109.053C48.825 59.435 0 108.26 0 168.489c0 60.228 48.925 105.641 109.054 109.064 11.634.662 21.792-.542 30.686-3.192 10.229 31.871 29.19 59.826 54.286 80.807h255.186C487.568 323.094 512 274.932 512 221.018V91.487c0-17.707-14.354-32.052-32.051-32.052zM131.238 208.791c-6.616 3.654-14.094 5.912-22.184 5.912-25.518 0-46.206-20.688-46.206-46.215 0-25.516 20.688-46.205 46.206-46.205 8.09 0 15.568 2.258 22.184 5.902v80.606z" fill="#4b4b4b"/></svg>