<svg version="1.1" id="_x32_" xmlns="http://www.w3.org/2000/svg" x="0" y="0" viewBox="0 0 512 512" style="width:256px;height:256px" xml:space="preserve" opacity="1"><style>.st0{fill:#4b4b4b}</style><path class="st0" d="M255.995 169.648c19.802 0 35.844-16.174 35.844-36.146 0-19.981-16.042-36.172-35.844-36.172-19.797 0-35.848 16.191-35.848 36.172 0 19.973 16.051 36.146 35.848 36.146z" fill="#4b4b4b"/><path class="st0" d="M143.528 233.512h224.926a28.524 28.524 0 0020.348-8.499 28.853 28.853 0 008.402-20.392V70.734c0-7.912-3.212-15.193-8.402-20.392-5.155-5.216-12.41-8.507-20.348-8.507H337.34c-2.511.009-4.848-1.488-5.925-3.912l-9.312-20.856C317.487 6.722 307.242 0 295.869 0h-79.752c-11.374 0-21.617 6.722-26.243 17.066l-9.316 20.856c-1.076 2.424-3.409 3.921-5.92 3.912h-31.109c-7.92 0-15.198 3.291-20.357 8.507a28.944 28.944 0 00-8.385 20.392v133.888a28.91 28.91 0 008.385 20.392 28.58 28.58 0 0020.356 8.499zM349.856 74.146H369.6v19.745h-19.744V74.146zm-139.9 13.015c11.736-11.859 28.063-19.246 46.04-19.228 17.964-.018 34.299 7.369 46.035 19.228a65.645 65.645 0 0119.036 46.342c.009 18.047-7.277 34.483-19.036 46.316-11.736 11.868-28.072 19.254-46.035 19.254-17.968 0-34.304-7.378-46.04-19.254-11.758-11.833-19.044-28.269-19.036-46.316a65.638 65.638 0 0119.036-46.342zm86.373 199.799h29.87v-33.713H185.796v33.713h29.87L105.142 485.867l24.646 14.396 107.745-175.617L241.725 512h28.545l4.192-187.354 107.75 175.617 24.646-14.396z" fill="#4b4b4b"/></svg>