<svg version="1.1" id="_x32_" xmlns="http://www.w3.org/2000/svg" x="0" y="0" width="512" height="512" style="width:256px;height:256px" xml:space="preserve" opacity="1"><style>.st0{fill:#4b4b4b}</style><path class="st0" d="M407.156 267.128c5.766-72.641-33.688-137.469-88.891-181.625-28.297-22.625-39.359-47.609-43.609-65.375-3.406-14.266-1.609-15.797-1.609-15.797a4.746 4.746 0 00-2.75-3.875 4.745 4.745 0 00-4.75.391s-5.5 1.188-14.422 9.859c-20.344 19.75-43.359 52.703-28.203 97.75 16.281 48.344 7.672 58.453-.844 57.797-11.047-.844-12.734-7.656-10.969-28.828 2.047-24.766-20.406-45.906-20.406-45.906s-34.891 55.469-62.094 95.141c-16.078 23.453-23.781 53.266-23.781 80.469h-.547c0 83.625 67.797 151.438 151.438 151.438 83.656-.001 151.437-67.814 151.437-151.439zM255.984 375.925c-46.125 0-83.547-37.406-83.547-83.547a83.228 83.228 0 0111.891-42.953c6.5 24.156 28.547 41.953 54.766 41.953 31.297 0 56.688-25.375 56.688-56.672 0-5.984-.938-11.75-2.656-17.156 27.5 13.672 46.406 42.031 46.406 74.828-.001 46.141-37.391 83.547-83.548 83.547zm-59.453 43.407l-74.469 23.109c24.172 4.453 42.563 25.656 42.563 51.094 0 2.203-.266 4.406-.547 6.594l76.766-55.984s-12.406-23.047-44.313-24.813z" fill="#4b4b4b"/><path class="st0" d="M102.563 452.66c-24.813 0-44.922 20.094-44.922 44.906 0 5.047.875 9.906 2.422 14.438h84.984c1.531-4.531 2.406-9.391 2.406-14.438 0-24.812-20.094-44.906-44.89-44.906zm287.375-10.219l-74.469-23.109c-31.906 1.766-44.313 24.813-44.313 24.813l76.766 55.984c-.266-2.188-.531-4.391-.531-6.594 0-25.437 18.359-46.64 42.547-51.094z" fill="#4b4b4b"/><path class="st0" d="M409.438 452.66c-24.797 0-44.891 20.094-44.891 44.906 0 5.047.859 9.906 2.406 14.438h84.984c1.547-4.531 2.422-9.391 2.422-14.438 0-24.812-20.093-44.906-44.921-44.906z" fill="#4b4b4b"/></svg>