<svg version="1.1" id="_x32_" xmlns="http://www.w3.org/2000/svg" x="0" y="0" viewBox="0 0 512 512" style="width:256px;height:256px" xml:space="preserve" opacity="1"><style>.st0{fill:#4b4b4b}</style><path class="st0" d="M462.394 284.515c-19.483-27.624-36.393-57.716-50.349-85.636-20.524-41.057-34.629-77.306-40.71-93.774-26.107 3.331-50.968 4.808-74.008 4.816-70.582-.016-124.685-12.706-151.004-20.389 36.469 176.416 138.673 302.965 164.764 332.938L512 341.72c-18.084-16.196-34.601-35.953-49.606-57.205z" fill="#4b4b4b"/><path class="st0" d="M106.432 179.48C82.625 235.08 47.378 305.199 0 369.951l87.05 15.07L120.851 269.7s18.4 75.646 57.245 79.734l1.209 51.559 103.266 17.873c-37.084-46.12-115.05-156.05-150.692-304.122-6.205 17.338-14.646 39.499-25.447 64.736z" fill="#4b4b4b"/></svg>