<svg xmlns="http://www.w3.org/2000/svg" viewBox="0 0 512 512" style="width:256px;height:256px"><path d="M216.141 258.419c20.43-48.178 43.45-94.678 66.082-141.801 12.861-28.262 27.282-55.507 43.435-81.884l.046-.075c8.876-14.626-1.061-33.436-18.142-34.42-95.952-5.53-208.16 85.734-255.904 198.317-47.868 112.874-15.212 210.1 61.295 262.386 12.581 8.598 29.902 2.461 34.411-12.095a3490.077 3490.077 0 0118.428-57.678c16.459-44.557 31.781-88.965 50.349-132.75zM454.214 369.53c47.806-112.729 35.318-257.06-35.6-322.071-12.465-11.427-32.6-5.724-37.205 10.547a169.881 169.881 0 00-.743 2.673c-7.734 29.948-17.294 59.253-28.672 88.146-18.143 49.027-35.569 97.899-56.001 146.076-18.569 43.784-39.842 85.669-60.43 128.473a3489.67 3489.67 0 01-27.6 51.419c-7.318 13.361.34 30.071 15.265 33.119 90.692 18.523 183.161-25.609 230.986-138.382z" fill="#4b4b4b"/></svg>