<svg xmlns="http://www.w3.org/2000/svg" viewBox="0 0 512 512" style="width:256px;height:256px"><path d="M433.782 102.668c-24.372-4.877-48.737-9.755-58.484-13.006C342.21 78.633 279.2 4.062 256.704.316c-28.748-4.791-60.368 45.801-29.25 76.432a173.81 173.81 0 00-55.964 24.809c-27.852 18.815-49.961 45.435-63.218 76.762-8.83 20.877-13.715 43.867-13.715 67.917 0 1.346.028 2.642.057 3.91l-32.358 68.618v-.008A26.098 26.098 0 0059.75 329.9a26.146 26.146 0 0014.711 23.505l25.646 12.455a1.76 1.76 0 011.004 1.597v41.919c0 2.678.415 5.299 1.189 7.756a25.96 25.96 0 003.287 6.854 26.168 26.168 0 0011.474 9.446 26.082 26.082 0 0010.177 2.07h68.854c.208 0 .358.021.509.065a1.806 1.806 0 011.103 1.016c.093.201.136.401.136.68v48.622a26.11 26.11 0 0011.717 21.779l.014.007a26.066 26.066 0 0014.396 4.326c3.452 0 6.94-.687 10.22-2.077l134.415-57.03v.007a26.052 26.052 0 0011.594-9.655 26.078 26.078 0 004.326-14.41v-51.774c17.374-15.333 31.67-34.069 41.833-55.182 11.029-22.89 17.203-48.579 17.203-75.644.007-32.473-8.909-62.961-24.394-89.016 13.608-1.304 26.191-7.843 30.86-17.189 7.113-14.212-4.053-34.931-16.242-37.359zm-74.728 229.06c-17.947 7.849-7.247 35.043 1.11 51.143v45.965a1.85 1.85 0 01-.301.989 1.65 1.65 0 01-.766.63h-.007l-134.429 57.038a2.036 2.036 0 01-.695.143c-.35 0-.673-.1-.959-.287a1.777 1.777 0 01-.802-1.461v-48.622a25.603 25.603 0 00-1.175-7.764 25.947 25.947 0 00-3.287-6.847 26.152 26.152 0 00-11.474-9.46 26.018 26.018 0 00-10.177-2.063h-68.854a1.715 1.715 0 01-.967-.286 1.85 1.85 0 01-.651-.788 1.654 1.654 0 01-.129-.68v-41.919a26.08 26.08 0 00-3.996-13.872 26.103 26.103 0 00-10.715-9.633h-.014l-25.633-12.455c-.358-.179-.565-.372-.744-.659a1.736 1.736 0 01-.264-.938c0-.251.042-.458.172-.738v-.007l34.907-74.011-.122-2.994c-.079-2.091-.158-4.04-.158-5.916.006-31.134 9.446-59.938 25.632-83.916 16.193-23.971 39.147-43.022 66.061-54.402 14.288-6.044 29.693-9.926 45.851-11.266 13.5 7.405 29.464 14.754 45.958 21.701 23.269 39.834 18.069 94.193-16.48 106.154l24.372 92.603s32.486-55.24 53.614-50.362c21.113 4.877 21.113 53.599-4.878 64.98z" fill="#4b4b4b"/></svg>