<svg xmlns="http://www.w3.org/2000/svg" width="512" height="512" style="width:256px;height:256px"><path d="M34.313 203.5c2.297-5.031 6.703-13.297 14.422-27.813 3.547-6.688 7.516-14.063 11.578-21.625H24.719C11.078 154.063 0 165.109 0 178.781 0 192.438 11.078 203.5 24.719 203.5h9.594zm452.968-49.437h-35.594a3666.34 3666.34 0 0111.578 21.625c7.719 14.516 12.109 22.781 14.422 27.813h9.594c13.641 0 24.719-11.063 24.719-24.719 0-13.673-11.078-24.719-24.719-24.719zM39.391 417.781c0 18.406 14.938 33.328 33.328 33.328 18.406 0 33.313-14.922 33.313-33.328v-31.516H39.391v31.516zm366.547 0c0 18.406 14.938 33.328 33.344 33.328s33.328-14.922 33.328-33.328v-31.516h-66.672v31.516zm61.937-208.093c1.688.5-61.688-115.813-64.719-122.094-8-16.656-27.781-26.703-47.063-26.703H155.89c-19.297 0-39.031 10.047-47.063 26.703-3.031 6.281-66.375 122.594-64.703 122.094 0 0-20.5 20.453-22.063 22.094-8.625 9.266-8 17.281-8 25.313v92.563c0 17.266 3.078 26.719 23.438 26.719h437c20.359 0 23.453-9.453 23.453-26.719v-92.563c0-8.031.609-16.047-8.047-25.313-1.499-1.641-22.03-22.094-22.03-22.094zM96.563 174.016s40.703-73.313 43.109-78.109c4.109-8.188 15.828-14.125 27.813-14.125h177.031c12 0 23.703 5.938 27.813 14.125 2.422 4.797 43.125 78.109 43.125 78.109 3.75 6.75.438 19.313-10.672 19.313H107.219c-11.11-.001-14.406-12.563-10.656-19.313zm-5.438 163.047c-20.656 0-37.406-16.734-37.406-37.391 0-20.672 16.75-37.406 37.406-37.406s37.391 16.734 37.391 37.406c0 20.656-16.735 37.391-37.391 37.391zm221.656 10.109c0 2.734-2.219 4.953-4.938 4.953H204.172a4.955 4.955 0 01-4.953-4.953V301.5c0-2.703 2.219-4.906 4.953-4.906h103.672c2.719 0 4.938 2.203 4.938 4.906v45.672zm108.094-10.109c-20.656 0-37.422-16.734-37.422-37.391 0-20.672 16.766-37.406 37.422-37.406s37.406 16.75 37.406 37.406-16.75 37.391-37.406 37.391z" fill="#4b4b4b"/></svg>