<svg xmlns="http://www.w3.org/2000/svg" width="512" height="512" style="width:256px;height:256px"><path d="M512 216.906c-.031-29.313-23.781-53.078-53.094-53.094h-123.11c-6.953.063-13.328 1.094-17.969 1.031-1.859 0-3.328-.156-4.188-.344l-.639-.186-.156-.469c-.141-.609-.281-1.625-.281-3.094 0-.906.141-2.188.25-3.438l30.281-74.875a58.585 58.585 0 004.281-21.969c.031-23.188-13.844-45.156-36.656-54.406a58.72 58.72 0 00-21.984-4.281c-23.203-.016-45.141 13.875-54.391 36.672l-.047.078-51.359 129.313h.031c-3.438 8.063-6.203 15.625-8.906 22.156-4.078 10.031-8.063 17.25-12.766 21.438-2.359 2.125-4.922 3.719-8.484 4.969-3.531 1.219-8.172 2.047-14.391 2.047-3.781-.016-7.375.422-10.891 1.078H44.5c-24.594 0-44.5 19.922-44.5 44.5v201.703c0 24.578 19.906 44.484 44.5 44.484h61.578c13.641 0 24.719-11.063 24.719-24.719v-20.484c4.328 2.531 8.891 4.828 13.797 6.672 17.156 6.5 37.531 9.219 62.063 9.219h191.25c29.313 0 53.094-23.719 53.094-53.047 0-6.891-1.406-13.453-3.828-19.453 21.156-7 36.453-26.875 36.453-50.375.016-9.594-2.688-18.547-7.141-26.25 6.422-5.25 10.781-12.156 13.266-19.375 2.719-7.75 3.656-15.906 3.656-24.203 0-5.141-1.094-10.141-2.969-15.016a52.201 52.201 0 00-5.375-10.125c16.062-9.125 26.921-26.36 26.937-46.157zm-53.062 26.891h-8.844c-3.469 0-6.813 1.391-9.25 3.828s-3.844 5.813-3.844 9.25 1.406 6.813 3.844 9.25 5.781 3.844 9.25 3.844c2.516 0 4.578.563 6.594 1.609 2.969 1.516 5.797 4.375 7.75 7.719 1.969 3.281 2.875 7.047 2.813 8.906.031 8.297-1.438 15.078-3.719 19.078-1.156 2.031-2.391 3.453-3.906 4.594-1.531 1.125-3.438 2.063-6.344 2.688-4.938 1-8.813 4.734-10.031 9.625a12.995 12.995 0 004.344 13.25c6.094 5.094 9.875 12.313 9.875 20.594-.031 14.844-12.047 26.875-26.922 26.906h-6.234c-5.438 0-10.313 3.344-12.219 8.438a13.038 13.038 0 003.563 14.438c5.688 5.078 9.172 12.063 9.172 20.047-.016 14.844-12.047 26.859-26.922 26.891h-191.25c-20.063.016-36.031-2.063-48.313-5.969-9.25-2.938-16.391-6.828-22.172-11.688-1.938-1.656-3.703-3.469-5.375-5.359V245.5c2.109-.531 4.547-.875 7.625-.875 11.328 0 21.156-2.047 29.453-6.25 6.188-3.109 11.375-7.406 15.5-12.172 6.188-7.203 10.219-15.297 13.719-23.484 3.5-8.219 6.5-16.625 10.031-24.906l.156-.313L258.61 48.219c5.109-12.625 17.281-20.266 30.125-20.281 4.047 0 8.172.766 12.172 2.391 12.656 5.094 20.297 17.266 20.313 30.141 0 4.047-.75 8.156-2.375 12.172l-31 76.672a12.846 12.846 0 00-.844 3.125c-.391 2.906-.594 5.656-.594 8.313 0 4.875.688 9.484 2.484 13.781 1.313 3.219 3.297 6.203 5.734 8.563 3.656 3.594 8.078 5.594 12.031 6.625 4 1.063 7.719 1.281 11.172 1.297 7.422-.047 14.109-1.094 17.969-1.031h123.11c14.844-.016 26.938 12.047 26.938 26.922-.032 14.841-12.064 26.872-26.907 26.888z" fill="#4b4b4b"/></svg>