<svg version="1.1" id="_x32_" xmlns="http://www.w3.org/2000/svg" x="0" y="0" viewBox="0 0 512 512" style="width:256px;height:256px" xml:space="preserve" opacity="1"><style>.st0{fill:#4b4b4b}</style><path class="st0" d="M256 0C114.61 0 0 114.619 0 256c0 141.38 114.61 256 256 256s256-114.62 256-256C512 114.619 397.39 0 256 0zm50.89 261.12c-42.65 84.34-137.109 103.57-197.519 67.76C49.69 293.29 38.35 213.299 75.21 149.76c37.12-64 103.22-94.881 168.01-71.12 64.92 22.82 106.53 97.879 63.67 182.48z" fill="#4b4b4b"/><path class="st0" d="M210.87 129.3c-30.12-12.28-55.64-1.56-66.94 18.2-6.85 12.1-5.161 24.629-1.021 32.08l-.219.399c-11.86 1.781-24.84 8.93-32.31 24.02-12.09 24.781-1.51 50.681 26.14 65.011 27.761 14.389 59.19 8.66 72.49-17.71 8.12-15.941 5.08-31.31-1.62-41.801l.21-.38c9.79-1.3 23.08-7.7 30.11-20.539 11.6-21.141 3.46-46.9-26.84-59.28zm-32.7 105.56c-5.88 11.6-18.16 15.6-29.88 9.81-11.699-5.8-15.339-17.45-9.68-28.75 5.611-11.11 17.36-15.32 29.251-9.82 11.949 5.499 16.129 17.399 10.309 28.76zm28.17-60.33c-4.71 8.51-15.61 12.52-25.85 7.93-10.221-4.6-12.88-14.55-8.24-22.839 4.79-8.46 15.31-12.52 25.58-8.141 10.3 4.389 13.33 14.35 8.51 23.05z" fill="#4b4b4b"/></svg>