<svg xmlns="http://www.w3.org/2000/svg" viewBox="0 0 512 512" style="width:256px;height:256px"><path d="M176.594 31.866h158.812c6.414 0 11.613-5.2 11.613-11.613v-8.64C347.019 5.2 341.819 0 335.406 0H176.594c-6.413 0-11.613 5.2-11.613 11.613v8.64c0 6.413 5.2 11.613 11.613 11.613zM197.1 43.239h23.073v70.546H197.1zm94.726 0h23.073v70.546h-23.073zm58.24 81.926H161.934c-30.993 0-56.119 25.126-56.119 56.119v249.57c0 27.1 19.206 49.712 44.752 54.966v16.853a9.324 9.324 0 009.326 9.326h6.214c5.146 0 9.326-4.173 9.326-9.326v-15.7h161.124v15.7a9.324 9.324 0 009.327 9.326h6.213c5.146 0 9.326-4.173 9.326-9.326V485.82c25.546-5.254 44.76-27.867 44.76-54.966v-249.57c.002-30.993-25.125-56.119-56.117-56.119zM177.981 417.168c0 4.227-3.42 7.646-7.634 7.646a7.642 7.642 0 01-7.646-7.646V212.684a7.642 7.642 0 017.646-7.646c4.213 0 7.634 3.42 7.634 7.646v204.484zm57.106 0a7.64 7.64 0 11-15.28 0V212.684a7.64 7.64 0 1115.28 0v204.484zm57.099 0c0 4.227-3.419 7.646-7.633 7.646a7.641 7.641 0 01-7.646-7.646V212.684a7.642 7.642 0 017.646-7.646c4.214 0 7.633 3.42 7.633 7.646v204.484zm57.106 0a7.64 7.64 0 11-15.28 0V212.684a7.64 7.64 0 1115.28 0v204.484z" fill="#4b4b4b"/></svg>