<svg xmlns="http://www.w3.org/2000/svg" viewBox="0 0 512 512" style="width:256px;height:256px"><path d="M441.79 99.619c0-26.092-31.893-57.994-86.996-57.994-55.103 0-49.294-49.303-60.904-40.594-11.601 8.692-26.102 49.294-8.692 69.595 17.392 20.301 2.891 60.904-5.8 72.495-4.846 6.458-150.456 214.17-150.456 214.17L20.124 454.006 110.019 512l85.267-102.09s38.062-1.028 82.123-16.068c2.801 11.078 11.961 19.59 23.39 21.454l5.918 50.041c-6.827 1.712-13.042 3.729-17.968 5.485-6.62 2.37-10.907 4.269-11.069 4.342-4.756 2.116-6.908 7.683-4.792 12.438 2.108 4.756 7.674 6.899 12.438 4.792.225-.099 7.278-3.206 16.915-6.214 4.81-1.495 10.258-2.99 15.78-4.071 5.494-1.108 11.06-1.793 16.014-1.784 4.774-.009 8.926.648 11.88 1.856 1.486.586 2.684 1.288 3.665 2.081a10.486 10.486 0 012.45 2.855c2.62 4.485 8.394 5.998 12.888 3.35 4.494-2.62 5.999-8.394 3.36-12.898a29.282 29.282 0 00-6.8-7.926c-3.982-3.234-8.548-5.26-13.195-6.484-4.656-1.225-9.448-1.675-14.248-1.675a84.22 84.22 0 00-6.395.261l-5.386-48.186c10.574-4.333 18.04-14.717 18.04-26.84v-24.832c17.824-13.005 34.081-29.542 46.394-50.573 49.303-84.095 29.002-147.89 29.002-147.89s39.278-28.065 73.692 9.664c.568.631 1.964 1.081 2.135-.756 3.034-31.76-13.079-72.713-49.727-72.713zm-73.909 138.145l-53.923 82.69a66.302 66.302 0 01-43.502 28.957 66.295 66.295 0 01-50.942-11.574l-14.843-10.78c-3.882-2.838-4.738-8.278-1.91-12.15 2.819-3.891 8.268-4.747 12.15-1.927l14.834 10.78a48.724 48.724 0 0028.731 9.358c2.936 0 5.899-.27 8.836-.829a48.787 48.787 0 0032.064-21.345l53.932-82.682c2.612-4.017 8.016-5.151 12.033-2.531 4.026 2.621 5.161 8.025 2.54 12.033z" fill="#4b4b4b"/></svg>