<svg version="1.1" id="_x32_" xmlns="http://www.w3.org/2000/svg" x="0" y="0" viewBox="0 0 512 512" style="width:256px;height:256px" xml:space="preserve" opacity="1"><style>.st0{fill:#4b4b4b}</style><path class="st0" d="M470.522 491.888l-40.189-367.362L256 0 81.667 124.527 39.282 512h433.437l-2.197-20.112zM79.736 475.725l36.222-331.113L256 44.582l140.042 100.03 36.221 331.113H79.736z" fill="#4b4b4b"/><path class="st0" d="M333.19 361.446c-4.826-2.683-20.466 9.113-23.894 9.157-1.222.009-21.237.726-46.663 1.621-.398-9.006-1.24-28.419-1.815-45.175 24.496-.505 46.654-.948 50.693-.656 9.591.682 13.709-10.282 7.536-17.818-6.164-7.537-21.919-20.555-26.719-19.873-4.8.691-12.336 7.545-12.336 7.545s-8.29.62-19.713 1.338c.301-16.986 1.922-39.666 1.922-41.526 0-1.293-.266-6.075-2.578-10.318 33.326-3.463 70.442-7.138 73.816-8.183 9.592-2.966 2.276-20.334-21.927-32.892-11.69-6.067-23.531 0-30.828 5.482 0 0-54.811 5.482-74.002 7.536-19.262 2.064-34.937 1.373-45.44-7.076-14.613 42.031 25.576 43.855 52.976 40.189 3.269-.434 7.422-.938 12.133-1.479.399 9.273.425 28.854.31 50.047-15.604.619-29.606.779-33.679-.381-11.451-3.25-17.81-1.373-15.756 5.482 0 0 7.537 21.927 10.274 23.291 1.045.522 17.924.355 38.931-.026-.203 20.271-.469 38.222-.575 45.777-37.497 1.276-73.816 2.436-75.472 2.116-10.113-1.912-19.182.195-8.768 13.108 0 0 14.701 21.972 19.412 23.096 8.245 1.984 58.858-6.757 81.468-6.987 22.61-.23 99.402 5.172 104.883 5.119 5.482-.071 22.566-4.348 22.495-12.576-.09-8.218-31.866-33.246-36.684-35.938z" fill="#4b4b4b"/></svg>