<svg version="1.1" id="_x32_" xmlns="http://www.w3.org/2000/svg" x="0" y="0" viewBox="0 0 512 512" style="width:256px;height:256px" xml:space="preserve" opacity="1"><style>.st0{fill:#4b4b4b}</style><path class="st0" d="M311.508 354.916l5.72-11.034a222.539 222.539 0 005.096-10.582c3.117-7.076 5.666-14.261 7.271-21.36 3.265-14.331 1.566-27.476-7.146-37.21-8.712-9.928-23.097-16.591-37.966-21.235-31.654-9.11-64.024-19.248-95.343-31.139-7.862-2.985-15.686-6.086-23.479-9.39-7.676-3.226-15.998-6.997-23.612-12.102-7.527-5.088-15.421-11.868-19.496-22.263-2.019-5.112-2.549-10.894-1.87-16.147.685-5.267 2.4-10.06 4.528-14.331 4.426-8.751 9.857-15.063 14.751-21.835l15.235-19.871 30.789-39.322 52.421-65.949L198.445 0S107.419 83.709 66.788 136.535c-35.324 45.914-16.03 86.483 47.87 113.772 53.933 23.043 104.414 40.88 104.414 40.88 8.697 4.504 14.884 12.398 16.941 21.609 2.057 9.219-.218 18.812-6.242 26.3L90.719 512h138.733l59.006-112.868 23.05-44.216z" fill="#4b4b4b"/><path class="st0" d="M444.973 261.023c-19.365-32.394-52.515-55.242-90.917-62.669L218.004 169.67c-5.673-1.091-10.442-4.691-12.85-9.694-2.408-4.995-2.151-10.786.678-15.578l90.442-141.6-44.052-1.262-55.694 73.672-29.752 39.96-14.627 20.082c-4.707 6.756-9.897 13.435-12.757 19.684-3.046 6.46-3.81 12.617-1.612 17.728 2.119 5.237 7.301 10.107 13.551 14.02 6.328 4.005 13.287 7.02 21.002 10.044 7.59 3 15.289 5.845 23.043 8.572 31.155 10.948 62.536 19.956 95 28.459 16.645 4.956 34.264 11.595 48.299 26.402 6.842 7.41 11.946 17.143 13.886 27.219 1.995 10.084 1.341 20.012-.405 29.191-1.839 9.172-4.714 17.791-8.089 26.004a241.697 241.697 0 01-5.431 12.024l-5.486 11.245-21.983 44.8L261.284 512H401.91l53.192-144.646c12.929-35.176 9.235-73.938-10.129-106.331z" fill="#4b4b4b"/></svg>