<svg version="1.1" id="_x32_" xmlns="http://www.w3.org/2000/svg" x="0" y="0" width="512" height="512" style="width:256px;height:256px" xml:space="preserve" opacity="1"><style>.st0{fill:#4b4b4b}</style><path class="st0" d="M456.789 429.797c-2-7.484-4.859-14.203-8.359-20.188-6.156-10.516-14.313-18.703-23.328-25.203-6.781-4.906-14.016-8.891-21.375-12.313-11.063-5.156-22.375-9.094-32.844-12.891s-20.125-7.484-27.672-11.766l-.844-.469c-2.734-1.563-5.172-3.219-7.281-4.938-3.203-2.625-5.656-5.406-7.453-8.516-1.813-3.109-3-6.609-3.469-10.984-.344-3.094-.484-2.891-.484-6-.016-9.188 1.281-18.25 2.844-25.656 4.703-5.219 8.984-11.438 13.063-18.875 4.078-7.469 7.953-16.219 11.813-26.563 2.469-1.125 4.969-2.438 7.406-4.063 5.563-3.656 10.828-8.781 15.219-15.625 4.406-6.813 7.938-15.297 10.328-25.781a37.97 37.97 0 001-8.625c0-5.938-1.422-11.594-3.828-16.688-1.656-3.469-3.766-6.688-6.219-9.625 1.234-4.563 2.781-10.688 4.125-17.906 1.875-9.969 3.438-21.969 3.438-34.563 0-8.156-.656-16.563-2.328-24.844-1.266-6.219-3.109-12.406-5.734-18.313-3.906-8.875-9.609-17.25-17.547-24.156-7.328-6.406-16.547-11.484-27.641-14.75-3.922-4.625-7.859-8.563-11.906-11.906-3.484-2.875-7.063-5.313-10.703-7.281-5.5-3-11.188-4.969-17.031-6.188-5.828-1.219-11.781-1.656-17.922-1.656-8.5.031-17.438.844-27.328 1.797-3.719.375-6.859.828-9.563 1.297-4.047.719-7.094 1.469-9.516 1.938-1.219.25-2.297.438-3.328.531a21.868 21.868 0 01-3.25.219c-1.531 0-3.344-.125-5.688-.469a130.392 130.392 0 01-18.938-4.188c-2.578-.781-4.797-1.531-6.547-2.188-.875-.313-1.625-.625-2.25-.875a33.738 33.738 0 01-1.328-.594 8.863 8.863 0 00-2.234-.766A9.318 9.318 0 00180.273 0a9.513 9.513 0 00-2.484.313c-.625.172-1.109.344-1.531.516-.828.328-1.469.672-2.094 1.047-1.172.688-2.266 1.453-3.453 2.344-2.047 1.563-4.313 3.5-6.703 5.781a110.534 110.534 0 00-10.922 12.016 77.894 77.894 0 00-4.875 7.016c-1.469 2.438-2.781 4.922-3.781 7.531-5.063 12.906-8.406 24.813-10.484 35.781-2.078 11-2.875 21.063-2.859 30.297-.016 15.109 2.141 27.922 4.188 38.734.016.531.047 1.016.078 1.531.063 1 .156 2.063.266 3.156.172 1.625.375 3.313.531 4.703.063.703.125 1.328.156 1.828.031.219.047.438.047.594l.016.156v.969l2.031 8.844c-2.922 3.125-5.438 6.625-7.391 10.469-2.719 5.344-4.344 11.375-4.344 17.734 0 2.828.328 5.734.984 8.641v-.031c1.609 7 3.719 13.094 6.234 18.406 3.781 7.984 8.578 14.188 13.906 18.844 4.109 3.625 8.484 6.266 12.859 8.219 3.828 10.344 7.719 19.063 11.797 26.531 4.047 7.469 8.344 13.656 13.063 18.875 1.547 7.438 2.844 16.5 2.828 25.703 0 3.109-.156 2.891-.453 5.984-.344 3-1.016 5.609-1.969 7.938-1.469 3.5-3.578 6.5-6.453 9.297s-6.516 5.391-10.828 7.797l-3.375 1.781c-3.594 1.813-7.547 3.531-11.766 5.219-9.703 3.875-20.781 7.531-32.016 11.922-8.438 3.313-16.953 7.063-25.078 11.781-6.094 3.516-11.953 7.625-17.359 12.484-8.063 7.281-15.031 16.344-19.859 27.563-4.828 11.25-7.5 24.531-7.5 40.25 0 2.188.469 4.344 1.25 6.281.734 1.813 1.719 3.5 2.891 5.094 2.219 2.969 5.094 5.625 8.609 8.188 6.141 4.469 14.344 8.641 24.938 12.594 15.891 5.891 37.172 11.188 64.703 15.031 27.516 3.844 61.266 6.25 101.953 6.25 35.25 0 65.297-1.813 90.609-4.781 18.969-2.25 35.266-5.156 49.125-8.469 10.375-2.5 19.375-5.234 27.109-8.125 5.797-2.156 10.859-4.406 15.281-6.719 3.297-1.719 6.234-3.5 8.813-5.344 3.891-2.75 7-5.594 9.359-8.813 1.188-1.625 2.172-3.344 2.875-5.219.703-1.844 1.141-3.875 1.125-5.969 0-10.657-1.218-20.219-3.531-28.766zm-217.609.859l-54.266-73.531c.703-.5 1.406-1.031 2.063-1.547 2.984-2.344 5.75-4.984 8.172-7.953l43.734 19.969-9.344 15.313 14.469 15.063-4.828 32.686zm-37.828-93.125a44.782 44.782 0 003.438-13.281c.406-3.719.578-4.094.578-7.703 0-11.781-1.781-22.797-3.703-31.438l-.5-2.266-1.625-1.703c-4.141-4.297-8.109-9.766-12.094-17.078-4-7.313-7.969-16.406-12.063-27.75l-1.328-3.719-3.75-1.344c-2.609-.938-5.141-2.156-7.578-3.766-3.672-2.438-7.156-5.734-10.344-10.672s-6.063-11.563-8.125-20.531a22.665 22.665 0 01-.563-4.922c0-3.563.891-6.969 2.531-10.234 1.375-2.688 3.297-5.25 5.625-7.563 3.906 5.813 7.141 10.422 8.313 11.578 3.828 3.766.234-5.516.844-15.078 1.156-18.609 18.797-40.125 20.875-82.906C227.852 97.203 317.742 78 317.742 78s.969 21.969 16.297 42.047c14.531 19.078 22.813 63.828 22.813 63.828s1.984-3.688 4.938-8.625c1.766 2.031 3.219 4.219 4.313 6.5 1.438 3.063 2.219 6.25 2.219 9.594 0 1.609-.188 3.25-.563 4.938-1.375 5.969-3.109 10.906-5.047 14.984-2.938 6.141-6.281 10.359-9.813 13.484-3.516 3.063-7.266 5.094-11.172 6.5l-3.75 1.344-1.328 3.703c-4.094 11.359-8.078 20.453-12.063 27.781-4 7.297-7.984 12.797-12.109 17.078l-1.625 1.703-.5 2.266c-1.938 8.625-3.703 19.641-3.703 31.406 0 3.625.172 3.984.563 7.719.453 4.344 1.469 8.422 2.984 12.156.063.188.156.375.219.531l-51.734 26.75-57.329-26.156zm75.781 96.625l-5.344-36.188 14.453-15.063-9.375-15.375 39.563-20.438a49.252 49.252 0 003.5 3.922c2.25 2.281 4.703 4.328 7.297 6.219l-50.094 76.923z" fill="#4b4b4b"/><path class="st0" d="M324.039 251.063s-10.594-4.922-17.5-15.594c-8.828-13.656-27.219-29.563-50.344-16.938-23.156-12.625-41.516 3.281-50.359 16.938-6.906 10.672-17.484 15.594-17.484 15.594s13.5 15.422 40.531 6.313c21.922-7.375 27.313-22.156 27.313-22.156s5.375 14.781 27.297 22.156c27.015 9.108 40.546-6.313 40.546-6.313z" fill="#4b4b4b"/></svg>