<svg xmlns="http://www.w3.org/2000/svg" width="1075" height="1024"><path d="M537.339 0C241.073 0 0 195.631 0 436.073 0 651.634 191.161 832.161 449.386 866.29c17.501 3.776 41.331 11.516 47.346 26.483 5.424 13.59 3.537 34.875 1.73 48.589 0 0-6.292 37.92-7.657 46.012-2.349 13.578-10.802 53.137 46.535 28.969 57.362-24.167 309.457-182.215 422.2-311.98h-.018c77.864-85.403 115.157-172.053 115.157-268.291 0-240.441-241.037-436.073-537.339-436.073zM186.734 319.871h37.707c5.78 0 10.449 4.687 10.449 10.467v185.941h102.42c5.78 0 10.449 4.705 10.449 10.485v37.671c0 5.78-4.669 10.485-10.449 10.485H186.715c-2.804 0-5.33-1.129-7.224-2.937-.037-.062-.095-.089-.144-.126-.062-.062-.107-.131-.144-.18-1.808-1.869-2.937-4.402-2.937-7.206V330.338c0-5.78 4.699-10.467 10.467-10.467zm203.741 0h37.689c5.78 0 10.467 4.699 10.467 10.467v234.133c0 5.768-4.687 10.431-10.467 10.431h-37.689c-5.768 0-10.467-4.663-10.467-10.431V330.338c0-5.768 4.699-10.467 10.467-10.467zm95.267 0h37.689c.123 0 .243.018.378.018l.54.036c.184.025.356.035.54.072.135.012.285.047.432.072.209.037.416.059.613.108.135.037.237.071.36.108.209.062.416.112.613.198.123.037.219.077.342.126.209.062.416.166.613.252.111.049.214.113.324.162.184.098.374.214.559.324.111.062.226.106.324.18.184.123.368.237.54.36.098.074.184.148.27.234.197.135.374.303.559.45l.18.18c.209.197.44.427.649.649.012.025.03.047.054.072.283.332.565.676.811 1.045l107.32 144.919v-139.1c0-5.768 4.674-10.467 10.467-10.467h37.671c5.78 0 10.467 4.699 10.467 10.467v234.133c0 5.768-4.687 10.431-10.467 10.431h-37.671a9.99 9.99 0 01-2.684-.36c-.049 0-.113-.018-.162-.018-.234-.074-.475-.148-.721-.234-.098-.037-.196-.089-.306-.126-.184-.074-.332-.124-.504-.198s-.345-.166-.504-.252a3.095 3.095 0 01-.288-.18 7.027 7.027 0 01-.649-.378.715.715 0 00-.108-.09 10.58 10.58 0 01-2.666-2.576L533.899 425.407v139.064c0 5.768-4.687 10.431-10.467 10.431h-37.689c-5.768 0-10.467-4.663-10.467-10.431V330.338c0-5.768 4.699-10.467 10.467-10.467zm259.41 0h150.595c5.78 0 10.449 4.687 10.449 10.467v37.707c0 5.78-4.669 10.467-10.449 10.467H793.345v39.563h102.402c5.78 0 10.449 4.687 10.449 10.467v37.689c0 5.793-4.669 10.467-10.449 10.467H793.345v39.581h102.402c5.78 0 10.449 4.705 10.449 10.485v37.671c0 5.78-4.669 10.485-10.449 10.485H745.152a10.356 10.356 0 01-7.224-2.937c-.065-.025-.107-.089-.144-.126-.046-.049-.12-.119-.144-.18a10.282 10.282 0 01-2.937-7.206V330.338c0-2.804 1.123-5.337 2.919-7.206.037-.062.101-.137.162-.198.037-.037.074-.059.108-.108 1.882-1.82 4.432-2.955 7.26-2.955z"/></svg>