<svg xmlns="http://www.w3.org/2000/svg" width="512" height="512" style="width:256px;height:256px"><path d="M464 56v40h-40V56H88v40H48V56H0v400h48v-40h40v40h336v-40h40v40h48V56h-48zM88 354.672H48v-64h40v64zm0-133.344H48v-64h40v64zm220.094 44.719L206.36 326.781c-.75.438-1.656.469-2.406.031a2.416 2.416 0 01-1.203-2.094V203.281c0-.859.469-1.656 1.203-2.094a2.486 2.486 0 012.406.031l101.734 60.75c.719.406 1.156 1.203 1.156 2.031 0 .845-.437 1.626-1.156 2.048zM464 354.672h-40v-64h40v64zm0-133.344h-40v-64h40v64z" fill="#4b4b4b"/></svg>