<svg version="1.1" id="_x32_" xmlns="http://www.w3.org/2000/svg" x="0" y="0" viewBox="0 0 512 512" style="width:256px;height:256px" xml:space="preserve" opacity="1"><style>.st0{fill:#4b4b4b}</style><path class="st0" d="M510.158 392.021l-45.585-57.325V93.613c0-11.662-9.457-21.12-21.119-21.12H68.546c-11.662 0-21.111 9.458-21.111 21.12v241.082L1.841 392.021A8.431 8.431 0 000 397.285v25.373c0 9.311 7.548 16.849 16.85 16.849h478.3c9.302 0 16.85-7.538 16.85-16.849v-25.373a8.426 8.426 0 00-1.842-5.264zM77.226 102.293h357.547v202.604H77.226V102.293zm226.896 317.176h-96.244v-25.478h96.244v25.478z" fill="#4b4b4b"/><path class="st0" d="M291.552 186.314a35.498 35.498 0 00-10.417-25.14 35.483 35.483 0 00-25.14-10.409 35.453 35.453 0 00-25.131 10.409 35.537 35.537 0 00-10.417 25.14v12.508h-11.472v43.38c0 12.571 10.193 22.746 22.762 22.746h48.533c12.561 0 22.754-10.175 22.754-22.746v-43.38h-11.472v-12.508zm-53.849 0c0-2.55.519-4.937 1.435-7.124a18.445 18.445 0 016.639-8.058c2.931-1.98 6.406-3.112 10.218-3.12 2.55 0 4.936.518 7.124 1.435a18.352 18.352 0 018.058 6.648c1.97 2.913 3.112 6.388 3.12 10.218v12.508h-36.594v-12.507z" fill="#4b4b4b"/></svg>