<svg version="1.1" id="_x32_" xmlns="http://www.w3.org/2000/svg" x="0" y="0" viewBox="0 0 512 512" style="width:256px;height:256px" xml:space="preserve" opacity="1"><style>.st0{fill:#4b4b4b}</style><path class="st0" d="M61.936 345.186h388.128c14.81 0 26.822-12.019 26.822-26.828V89.967c0-14.797-12.012-26.81-26.822-26.81H61.936c-14.81 0-26.81 12.012-26.81 26.81v228.39c.001 14.81 12 26.829 26.81 26.829zm14.19-245.997h359.749v203.649H76.126V99.189zm431.899 320.42l-47.841-42.468c-3.076-2.722-7.5-4.266-12.171-4.266H63.98c-4.664 0-9.095 1.544-12.164 4.266L3.968 419.609C1.405 421.874 0 424.792 0 427.811v14.797c0 3.456 3.608 6.234 8.064 6.234h495.874c4.468 0 8.063-2.778 8.063-6.234v-14.797c-.001-3.019-1.413-5.937-3.976-8.202zm-306.888 5.012l13.848-18.721h87.733l13.829 18.721h-115.41z" fill="#4b4b4b"/><path class="st0" d="M189.143 200.96l-4.442-.633c-11.374-1.588-15.449-5.55-15.449-11.354 0-6.545 4.69-11.241 13.221-11.241 7.038 0 13.342 2.095 20.139 6.544l1.728-.373 5.936-9.146-.253-1.721c-6.671-5.069-16.683-8.392-27.177-8.392-17.297 0-28.417 10.113-28.417 25.322 0 13.956 9.139 21.74 25.322 23.962l4.456.62c11.608 1.601 15.31 5.55 15.31 11.607 0 7.032-5.804 12.108-15.81 12.108-9.392 0-17.423-4.57-22.854-8.886l-1.728.114-7.664 8.899.246 1.861c6.551 6.17 18.538 11.101 30.886 11.101 20.892 0 31.638-11.101 31.638-26.05.001-14.469-8.904-22.134-25.088-24.342zm40.785-34.974l-1.235 1.233v81.557l1.235 1.234h52.626l1.24-1.234v-10.627l-1.24-1.234h-38.538l-.741-.753v-21.247l.741-.74h32.494l1.24-1.235v-10.626l-1.24-1.234h-32.494l-.741-.754v-20.499l.741-.74h38.538l1.24-1.241v-10.627l-1.24-1.233zm98.612-1.342c-14.462 0-25.329 6.905-29.658 20.246-1.728 5.19-2.228 9.886-2.228 23.107 0 13.222.5 17.918 2.228 23.108 4.329 13.342 15.196 20.246 29.658 20.246 14.576 0 25.436-6.905 29.766-20.246 1.734-5.19 2.234-9.886 2.234-23.108 0-13.221-.5-17.917-2.234-23.107-4.329-13.341-15.19-20.246-29.766-20.246zm15.684 62.619c-2.348 6.81-7.284 11-15.683 11-8.284 0-13.221-4.19-15.576-11-.981-3.089-1.481-7.412-1.481-19.266 0-11.987.5-16.177 1.481-19.278 2.354-6.797 7.291-10.987 15.576-10.987 8.399 0 13.335 4.19 15.683 10.987.981 3.101 1.494 7.291 1.494 19.278 0 11.855-.513 16.177-1.494 19.266z" fill="#4b4b4b"/></svg>