<svg xmlns="http://www.w3.org/2000/svg" width="512" height="512" style="width:256px;height:256px"><path d="M43.297 157.656L6.109 262.219C2.406 271.031 0 285.313 0 292.109v41.234c0 11.188 9.156 20.375 20.375 20.375h24.391C47.219 379 68.516 398.75 94.438 398.75s47.234-19.75 49.688-45.031h45.109V139.75H73.391c-11.203 0-24.75 8.063-30.094 17.906zm51.141 216.125c-13.781 0-24.969-11.188-24.969-24.969s11.188-24.938 24.969-24.938c13.797 0 24.969 11.156 24.969 24.938s-11.173 24.969-24.969 24.969zm71.359-207.468v79.516H46.875L70.25 174.22c2.047-3.781 9-7.906 13.281-7.906h82.266zm52-53.063v240.469h147.109c2.422 25.281 23.734 45.031 49.656 45.031 25.938 0 47.219-19.75 49.703-45.031H512V113.25H217.797zm196.766 260.531c-13.781 0-24.969-11.188-24.969-24.969s11.188-24.938 24.969-24.938c13.797 0 24.969 11.156 24.969 24.938s-11.173 24.969-24.969 24.969z" fill="#4b4b4b"/></svg>