<!--?xml version="1.0" encoding="utf-8"?-->
<!-- Generator: Adobe Illustrator 18.1.1, SVG Export Plug-In . SVG Version: 6.00 Build 0)  -->

<svg version="1.1" id="_x32_" xmlns="http://www.w3.org/2000/svg" xmlns:xlink="http://www.w3.org/1999/xlink" x="0px" y="0px" viewBox="0 0 512 512" style="width: 256px; height: 256px; opacity: 1;" xml:space="preserve">
<style type="text/css">
	.st0{fill:#4B4B4B;}
</style>
<g>
	<path class="st0" d="M462.394,284.515c-19.483-27.624-36.393-57.716-50.349-85.636c-20.524-41.057-34.629-77.306-40.71-93.774
		c-26.107,3.331-50.968,4.808-74.008,4.816c-70.582-0.016-124.685-12.706-151.004-20.389
		c36.469,176.416,138.673,302.965,164.764,332.938L512,341.72C493.916,325.524,477.399,305.767,462.394,284.515z" style="fill: rgb(75, 75, 75);"></path>
	<path class="st0" d="M106.432,179.48C82.625,235.08,47.378,305.199,0,369.951l87.05,15.07L120.851,269.7
		c0,0,18.4,75.646,57.245,79.734l1.209,51.559l103.266,17.873c-37.084-46.12-115.05-156.05-150.692-304.122
		C125.674,132.082,117.233,154.243,106.432,179.48z" style="fill: rgb(75, 75, 75);"></path>
</g>
</svg>
