<!--?xml version="1.0" encoding="utf-8"?-->
<!-- Generator: Adobe Illustrator 15.1.0, SVG Export Plug-In . SVG Version: 6.00 Build 0)  -->

<svg version="1.1" id="_x32_" xmlns="http://www.w3.org/2000/svg" xmlns:xlink="http://www.w3.org/1999/xlink" x="0px" y="0px" width="512px" height="512px" viewBox="0 0 512 512" style="width: 256px; height: 256px; opacity: 1;" xml:space="preserve">
<style type="text/css">

	.st0{fill:#4B4B4B;}

</style>
<g>
	<path class="st0" d="M456.789,429.797c-2-7.484-4.859-14.203-8.359-20.188c-6.156-10.516-14.313-18.703-23.328-25.203
		c-6.781-4.906-14.016-8.891-21.375-12.313c-11.063-5.156-22.375-9.094-32.844-12.891s-20.125-7.484-27.672-11.766l-0.844-0.469
		c-2.734-1.563-5.172-3.219-7.281-4.938c-3.203-2.625-5.656-5.406-7.453-8.516c-1.813-3.109-3-6.609-3.469-10.984
		c-0.344-3.094-0.484-2.891-0.484-6c-0.016-9.188,1.281-18.25,2.844-25.656c4.703-5.219,8.984-11.438,13.063-18.875
		c4.078-7.469,7.953-16.219,11.813-26.563c2.469-1.125,4.969-2.438,7.406-4.063c5.563-3.656,10.828-8.781,15.219-15.625
		c4.406-6.813,7.938-15.297,10.328-25.781c0.672-2.875,1-5.781,1-8.625c0-5.938-1.422-11.594-3.828-16.688
		c-1.656-3.469-3.766-6.688-6.219-9.625c1.234-4.563,2.781-10.688,4.125-17.906c1.875-9.969,3.438-21.969,3.438-34.563
		c0-8.156-0.656-16.563-2.328-24.844c-1.266-6.219-3.109-12.406-5.734-18.313c-3.906-8.875-9.609-17.25-17.547-24.156
		c-7.328-6.406-16.547-11.484-27.641-14.75c-3.922-4.625-7.859-8.563-11.906-11.906c-3.484-2.875-7.063-5.313-10.703-7.281
		c-5.5-3-11.188-4.969-17.031-6.188c-5.828-1.219-11.781-1.656-17.922-1.656c-8.5,0.031-17.438,0.844-27.328,1.797
		c-3.719,0.375-6.859,0.828-9.563,1.297c-4.047,0.719-7.094,1.469-9.516,1.938c-1.219,0.25-2.297,0.438-3.328,0.531
		c-1.063,0.156-2.094,0.219-3.25,0.219c-1.531,0-3.344-0.125-5.688-0.469c-7.188-1.031-13.781-2.625-18.938-4.188
		c-2.578-0.781-4.797-1.531-6.547-2.188c-0.875-0.313-1.625-0.625-2.25-0.875c-0.594-0.25-1.063-0.469-1.328-0.594
		c-0.797-0.406-1.563-0.625-2.234-0.766C181.383,0.031,180.789,0,180.273,0c-1.094,0-1.875,0.156-2.484,0.313
		c-0.625,0.172-1.109,0.344-1.531,0.516c-0.828,0.328-1.469,0.672-2.094,1.047c-1.172,0.688-2.266,1.453-3.453,2.344
		c-2.047,1.563-4.313,3.5-6.703,5.781c-3.594,3.406-7.422,7.531-10.922,12.016c-1.734,2.234-3.391,4.594-4.875,7.016
		c-1.469,2.438-2.781,4.922-3.781,7.531c-5.063,12.906-8.406,24.813-10.484,35.781c-2.078,11-2.875,21.063-2.859,30.297
		c-0.016,15.109,2.141,27.922,4.188,38.734c0.016,0.531,0.047,1.016,0.078,1.531c0.063,1,0.156,2.063,0.266,3.156
		c0.172,1.625,0.375,3.313,0.531,4.703c0.063,0.703,0.125,1.328,0.156,1.828c0.031,0.219,0.047,0.438,0.047,0.594l0.016,0.156v0.031
		v0.016v0.922l2.031,8.844c-2.922,3.125-5.438,6.625-7.391,10.469c-2.719,5.344-4.344,11.375-4.344,17.734
		c0,2.828,0.328,5.734,0.984,8.641v-0.031c1.609,7,3.719,13.094,6.234,18.406c3.781,7.984,8.578,14.188,13.906,18.844
		c4.109,3.625,8.484,6.266,12.859,8.219c3.828,10.344,7.719,19.063,11.797,26.531c4.047,7.469,8.344,13.656,13.063,18.875
		c1.547,7.438,2.844,16.5,2.828,25.703c0,3.109-0.156,2.891-0.453,5.984c-0.344,3-1.016,5.609-1.969,7.938
		c-1.469,3.5-3.578,6.5-6.453,9.297s-6.516,5.391-10.828,7.797l-3.375,1.781c-3.594,1.813-7.547,3.531-11.766,5.219
		c-9.703,3.875-20.781,7.531-32.016,11.922c-8.438,3.313-16.953,7.063-25.078,11.781c-6.094,3.516-11.953,7.625-17.359,12.484
		c-8.063,7.281-15.031,16.344-19.859,27.563c-4.828,11.25-7.5,24.531-7.5,40.25c0,2.188,0.469,4.344,1.25,6.281
		c0.734,1.813,1.719,3.5,2.891,5.094c2.219,2.969,5.094,5.625,8.609,8.188c6.141,4.469,14.344,8.641,24.938,12.594
		c15.891,5.891,37.172,11.188,64.703,15.031c27.516,3.844,61.266,6.25,101.953,6.25c35.25,0,65.297-1.813,90.609-4.781
		c18.969-2.25,35.266-5.156,49.125-8.469c10.375-2.5,19.375-5.234,27.109-8.125c5.797-2.156,10.859-4.406,15.281-6.719
		c3.297-1.719,6.234-3.5,8.813-5.344c3.891-2.75,7-5.594,9.359-8.813c1.188-1.625,2.172-3.344,2.875-5.219
		c0.703-1.844,1.141-3.875,1.125-5.969C460.32,447.906,459.102,438.344,456.789,429.797z M239.18,430.656l-54.266-73.531
		c0.703-0.5,1.406-1.031,2.063-1.547c2.984-2.344,5.75-4.984,8.172-7.953l43.734,19.969l-9.344,15.313l14.469,15.063L239.18,430.656
		z M201.352,337.531c1.75-4.047,2.953-8.5,3.438-13.281c0.406-3.719,0.578-4.094,0.578-7.703c0-11.781-1.781-22.797-3.703-31.438
		l-0.5-2.266l-1.625-1.703c-4.141-4.297-8.109-9.766-12.094-17.078c-4-7.313-7.969-16.406-12.063-27.75l-1.328-3.719l-3.75-1.344
		c-2.609-0.938-5.141-2.156-7.578-3.766c-3.672-2.438-7.156-5.734-10.344-10.672s-6.063-11.563-8.125-20.531
		c-0.375-1.688-0.563-3.328-0.563-4.922c0-3.563,0.891-6.969,2.531-10.234c1.375-2.688,3.297-5.25,5.625-7.563
		c3.906,5.813,7.141,10.422,8.313,11.578c3.828,3.766,0.234-5.516,0.844-15.078c1.156-18.609,18.797-40.125,20.875-82.906
		C227.852,97.203,317.742,78,317.742,78s0.969,21.969,16.297,42.047c14.531,19.078,22.813,63.828,22.813,63.828
		s1.984-3.688,4.938-8.625c1.766,2.031,3.219,4.219,4.313,6.5c1.438,3.063,2.219,6.25,2.219,9.594c0,1.609-0.188,3.25-0.563,4.938
		c-1.375,5.969-3.109,10.906-5.047,14.984c-2.938,6.141-6.281,10.359-9.813,13.484c-3.516,3.063-7.266,5.094-11.172,6.5l-3.75,1.344
		l-1.328,3.703c-4.094,11.359-8.078,20.453-12.063,27.781c-4,7.297-7.984,12.797-12.109,17.078l-1.625,1.703l-0.5,2.266
		c-1.938,8.625-3.703,19.641-3.703,31.406c0,3.625,0.172,3.984,0.563,7.719c0.453,4.344,1.469,8.422,2.984,12.156
		c0.063,0.188,0.156,0.375,0.219,0.531l-51.734,26.75L201.352,337.531z M277.133,434.156l-5.344-36.188l14.453-15.063l-9.375-15.375
		l39.563-20.438c1.109,1.375,2.266,2.688,3.5,3.922c2.25,2.281,4.703,4.328,7.297,6.219L277.133,434.156z" style="fill: rgb(75, 75, 75);"></path>
	<path class="st0" d="M324.039,251.063c0,0-10.594-4.922-17.5-15.594c-8.828-13.656-27.219-29.563-50.344-16.938
		c-23.156-12.625-41.516,3.281-50.359,16.938c-6.906,10.672-17.484,15.594-17.484,15.594s13.5,15.422,40.531,6.313
		c21.922-7.375,27.313-22.156,27.313-22.156s5.375,14.781,27.297,22.156C310.508,266.484,324.039,251.063,324.039,251.063z" style="fill: rgb(75, 75, 75);"></path>
</g>
</svg>
