<!--?xml version="1.0" encoding="utf-8"?-->
<!-- Generator: Adobe Illustrator 18.1.1, SVG Export Plug-In . SVG Version: 6.00 Build 0)  -->

<svg version="1.1" id="_x32_" xmlns="http://www.w3.org/2000/svg" xmlns:xlink="http://www.w3.org/1999/xlink" x="0px" y="0px" viewBox="0 0 512 512" style="width: 256px; height: 256px; opacity: 1;" xml:space="preserve">
<style type="text/css">
	.st0{fill:#4B4B4B;}
</style>
<g>
	<path class="st0" d="M433.782,102.668c-24.372-4.877-48.737-9.755-58.484-13.006c-33.088-11.029-96.098-85.6-118.594-89.346
		c-28.748-4.791-60.368,45.801-29.25,76.432c-20.275,4.97-39.183,13.465-55.964,24.809c-27.852,18.815-49.961,45.435-63.218,76.762
		c-8.83,20.877-13.715,43.867-13.715,67.917c0,1.346,0.028,2.642,0.057,3.91l-32.358,68.618v-0.008
		c-1.69,3.574-2.506,7.398-2.506,11.144c0,4.856,1.354,9.582,3.868,13.679c2.507,4.097,6.238,7.585,10.843,9.826l25.646,12.455
		c0.308,0.15,0.566,0.379,0.738,0.658c0.179,0.294,0.266,0.602,0.266,0.939v41.919c0,2.678,0.415,5.299,1.189,7.756
		c0.759,2.464,1.883,4.77,3.287,6.854c2.815,4.161,6.775,7.455,11.474,9.446c3.137,1.332,6.604,2.07,10.177,2.07h68.854
		c0.208,0,0.358,0.021,0.509,0.065c0.158,0.057,0.301,0.122,0.451,0.221c0.287,0.194,0.53,0.488,0.652,0.795
		c0.093,0.201,0.136,0.401,0.136,0.68v48.622c0,8.766,4.404,16.945,11.717,21.779l0.014,0.007c4.326,2.865,9.346,4.326,14.396,4.326
		c3.452,0,6.94-0.687,10.22-2.077l134.415-57.03v0.007c4.834-2.048,8.83-5.458,11.594-9.655c2.772-4.175,4.326-9.188,4.326-14.41
		v-51.774c17.374-15.333,31.67-34.069,41.833-55.182c11.029-22.89,17.203-48.579,17.203-75.644
		c0.007-32.473-8.909-62.961-24.394-89.016c13.608-1.304,26.191-7.843,30.86-17.189
		C457.137,125.815,445.971,105.096,433.782,102.668z M359.054,331.728c-17.947,7.849-7.247,35.043,1.11,51.143v45.965
		c-0.008,0.373-0.114,0.702-0.301,0.989c-0.201,0.293-0.444,0.501-0.766,0.63h-0.007l-134.429,57.038
		c-0.236,0.086-0.465,0.143-0.695,0.143c-0.35,0-0.673-0.1-0.959-0.287c-0.509-0.344-0.802-0.895-0.802-1.461v-48.622
		c0.008-2.686-0.401-5.307-1.175-7.764c-0.766-2.463-1.876-4.762-3.287-6.847c-2.815-4.161-6.768-7.47-11.474-9.46
		c-3.129-1.332-6.596-2.063-10.177-2.063h-68.854c-0.208,0-0.372-0.035-0.53-0.078c-0.15-0.05-0.301-0.114-0.437-0.208
		c-0.293-0.201-0.53-0.494-0.651-0.788c-0.087-0.208-0.129-0.408-0.129-0.68v-41.919c0-5.007-1.44-9.805-3.996-13.872
		c-2.543-4.068-6.224-7.449-10.715-9.633h-0.014l-25.633-12.455c-0.358-0.179-0.565-0.372-0.744-0.659
		c-0.179-0.293-0.272-0.623-0.264-0.938c0-0.251,0.042-0.458,0.172-0.738v-0.007l34.907-74.011l-0.122-2.994
		c-0.079-2.091-0.158-4.04-0.158-5.916c0.006-31.134,9.446-59.938,25.632-83.916c16.193-23.971,39.147-43.022,66.061-54.402
		c14.288-6.044,29.693-9.926,45.851-11.266c13.5,7.405,29.464,14.754,45.958,21.701c23.269,39.834,18.069,94.193-16.48,106.154
		l24.372,92.603c0,0,32.486-55.24,53.614-50.362C385.045,271.625,385.045,320.347,359.054,331.728z" style="fill: rgb(75, 75, 75);"></path>
</g>
</svg>
