<!-- Generated by IcoMoon.io -->
<svg version="1.1" xmlns="http://www.w3.org/2000/svg" width="1075" height="1024" viewBox="0 0 1075 1024">
<title></title>
<g id="icomoon-ignore">
</g>
<path fill="#000" d="M537.339 0c-296.266 0-537.339 195.631-537.339 436.073 0 215.561 191.161 396.088 449.386 430.217 17.501 3.776 41.331 11.516 47.346 26.483 5.424 13.59 3.537 34.875 1.73 48.589 0 0-6.292 37.92-7.657 46.012-2.349 13.578-10.802 53.137 46.535 28.969 57.362-24.167 309.457-182.215 422.2-311.98h-0.018c77.864-85.403 115.157-172.053 115.157-268.291 0-240.441-241.037-436.073-537.339-436.073zM186.734 319.871h37.707c5.78 0 10.449 4.687 10.449 10.467v185.941h102.42c5.78 0 10.449 4.705 10.449 10.485v37.671c0 5.78-4.669 10.485-10.449 10.485h-150.595c-2.804 0-5.33-1.129-7.224-2.937-0.037-0.062-0.095-0.089-0.144-0.126-0.062-0.062-0.107-0.131-0.144-0.18-1.808-1.869-2.937-4.402-2.937-7.206v-234.133c0-5.78 4.699-10.467 10.467-10.467zM390.475 319.871h37.689c5.78 0 10.467 4.699 10.467 10.467v234.133c0 5.768-4.687 10.431-10.467 10.431h-37.689c-5.768 0-10.467-4.663-10.467-10.431v-234.133c0-5.768 4.699-10.467 10.467-10.467zM485.742 319.871h37.689c0.123 0 0.243 0.018 0.378 0.018 0.184 0.012 0.356 0.024 0.54 0.036 0.184 0.025 0.356 0.035 0.54 0.072 0.135 0.012 0.285 0.047 0.432 0.072 0.209 0.037 0.416 0.059 0.613 0.108 0.135 0.037 0.237 0.071 0.36 0.108 0.209 0.062 0.416 0.112 0.613 0.198 0.123 0.037 0.219 0.077 0.342 0.126 0.209 0.062 0.416 0.166 0.613 0.252 0.111 0.049 0.214 0.113 0.324 0.162 0.184 0.098 0.374 0.214 0.559 0.324 0.111 0.062 0.226 0.106 0.324 0.18 0.184 0.123 0.368 0.237 0.54 0.36 0.098 0.074 0.184 0.148 0.27 0.234 0.197 0.135 0.374 0.303 0.559 0.45l0.18 0.18c0.209 0.197 0.44 0.427 0.649 0.649 0.012 0.025 0.030 0.047 0.054 0.072 0.283 0.332 0.565 0.676 0.811 1.045l107.32 144.919v-139.1c0-5.768 4.674-10.467 10.467-10.467h37.671c5.78 0 10.467 4.699 10.467 10.467v234.133c0 5.768-4.687 10.431-10.467 10.431h-37.671c-0.947 0-1.848-0.127-2.684-0.36-0.049 0-0.113-0.018-0.162-0.018-0.234-0.074-0.475-0.148-0.721-0.234-0.098-0.037-0.196-0.089-0.306-0.126-0.184-0.074-0.332-0.124-0.504-0.198s-0.345-0.166-0.504-0.252c-0.111-0.062-0.202-0.119-0.288-0.18-0.221-0.111-0.44-0.243-0.649-0.378-0.037-0.037-0.071-0.065-0.108-0.090-0.996-0.676-1.916-1.531-2.666-2.576l-107.428-145.081v139.064c0 5.768-4.687 10.431-10.467 10.431h-37.689c-5.768 0-10.467-4.663-10.467-10.431v-234.133c0-5.768 4.699-10.467 10.467-10.467zM745.152 319.871h150.595c5.78 0 10.449 4.687 10.449 10.467v37.707c0 5.78-4.669 10.467-10.449 10.467h-102.402v39.563h102.402c5.78 0 10.449 4.687 10.449 10.467v37.689c0 5.793-4.669 10.467-10.449 10.467h-102.402v39.581h102.402c5.78 0 10.449 4.705 10.449 10.485v37.671c0 5.78-4.669 10.485-10.449 10.485h-150.595c-2.816 0-5.355-1.129-7.224-2.937-0.065-0.025-0.107-0.089-0.144-0.126-0.046-0.049-0.12-0.119-0.144-0.18-1.82-1.869-2.937-4.402-2.937-7.206v-234.133c0-2.804 1.123-5.337 2.919-7.206 0.037-0.062 0.101-0.137 0.162-0.198 0.037-0.037 0.074-0.059 0.108-0.108 1.882-1.82 4.432-2.955 7.26-2.955z"></path>
</svg>
