<!--?xml version="1.0" encoding="utf-8"?-->
<!-- Generator: Adobe Illustrator 18.1.1, SVG Export Plug-In . SVG Version: 6.00 Build 0)  -->

<svg version="1.1" id="_x32_" xmlns="http://www.w3.org/2000/svg" xmlns:xlink="http://www.w3.org/1999/xlink" x="0px" y="0px" viewBox="0 0 512 512" style="width: 256px; height: 256px; opacity: 1;" xml:space="preserve">
<style type="text/css">
	.st0{fill:#4B4B4B;}
</style>
<g>
	<path class="st0" d="M448.454,282.366l-7.608-0.126c0,0-6.673-20.602-45.131-22.122c-30.448-1.202-61.757,0.878-89.258,5.354
		c-21.42,3.474-30.148,17.479-34.607,17.396l-12.753-0.201l-12.752,0.201c-4.459,0.083-13.186-13.921-34.607-17.396
		c-27.501-4.476-58.81-6.556-89.254-5.354c-38.458,1.521-45.131,22.122-45.131,22.122l-7.608,0.126
		c-7.654,0.125-13.759,6.43-13.63,14.089l0.238,14.882c0.092,5.729,3.708,10.823,9.09,12.786l4.961,1.812
		c0,0,8.297,26.498,21.208,48.73c18.364,31.618,51.698,34.056,86.577,30.473c48.592-5.002,58.68-51.109,62.714-64.788
		c7.859-26.666,18.193-23.651,18.193-23.651s10.335-3.015,18.194,23.651c4.034,13.679,14.118,59.787,62.714,64.788
		c34.883,3.583,68.212,1.144,86.577-30.473c12.912-22.232,21.204-48.73,21.204-48.73l4.961-1.812
		c5.387-1.963,8.994-7.057,9.095-12.786l0.234-14.882C462.208,288.796,456.104,282.491,448.454,282.366z M214.961,338.954
		c-2.33,6.246-5.11,12.335-8.155,18.33c-6.414,12.636-15.822,21.831-31.217,23.342c-6.372,0.627-11.934,0.969-16.999,1.053
		c-29.484,0.484-39-8.352-44.896-17.964c-9.161-14.966-13.37-28.128-14.957-38.733c-4.509-30.082,24.227-35.118,46.917-34.065
		c18.966,0.876,41.03,0.626,59.498,5.119c8.657,2.105,14.031,8.293,14.87,14.866C221.241,320.447,219.228,327.521,214.961,338.954z
		 M419.458,324.982c-1.586,10.606-5.795,23.768-14.957,38.733c-5.896,9.612-15.408,18.448-44.896,17.964
		c-5.069-0.084-10.631-0.426-16.995-1.053c-15.4-1.511-24.808-10.706-31.221-23.342c-3.04-5.995-5.826-12.084-8.155-18.33
		c-4.272-11.433-6.28-18.507-5.057-28.052c0.83-6.573,6.208-12.761,14.866-14.866c18.468-4.493,40.532-4.242,59.498-5.119
		C395.231,289.865,423.968,294.901,419.458,324.982z" style="fill: rgb(75, 75, 75);"></path>
	<path class="st0" d="M239.167,149.923c60.066,0,86.18-12.051,100.754-25.956c17.446,54.993,61.707,87.096,110.186,94.37
		c34.207-79.822-5.695-182.442-82.665-176.738C356.039,10.24,219.216-21.11,133.699,18.792S25.375,158.475,76.685,241.136
		C73.833,206.929,142.251,149.923,239.167,149.923z" style="fill: rgb(75, 75, 75);"></path>
	<path class="st0" d="M338.142,454.936c-37.213-32.261-81.872-14.882-81.872-14.882s-44.663-17.379-81.88,14.882
		C146.71,478.929,169.43,512,169.43,512s17.061-17.086,44.663-19.842c24.811-2.488,42.178-17.37,42.178-29.772
		c0,12.402,17.358,27.284,42.174,29.772C326.046,494.914,343.107,512,343.107,512S365.826,478.929,338.142,454.936z" style="fill: rgb(75, 75, 75);"></path>
</g>
</svg>
